<svg width="105" height="30" viewBox="0 0 105 30" fill="red" xmlns="http://www.w3.org/2000/svg">
    <g id="Frame 4">
        <g id="head">
            <path id="move"
                  d="M103.869 15.0372C104.283 15.2067 104.283 15.7933 103.869 15.9628L95.1515 19.5289C94.7345 19.6995 94.3223 19.2748 94.5053 18.8631L95.9097 15.7031C95.9672 15.5738 95.9672 15.4262 95.9097 15.2969L94.5053 12.1369C94.3223 11.7252 94.7345 11.3005 95.1515 11.4711L103.869 15.0372Z"
                  fill="#161718"/>
            <path id="not-move"
                  d="M103.869 15.0372C104.283 15.2067 104.283 15.7933 103.869 15.9628L95.1515 19.5289C94.7345 19.6995 94.3223 19.2748 94.5053 18.8631L95.9097 15.7031C95.9672 15.5738 95.9672 15.4262 95.9097 15.2969L94.5053 12.1369C94.3223 11.7252 94.7345 11.3005 95.1515 11.4711L103.869 15.0372Z"
                  fill="#161718"/>
        </g>
        <g id="arrow">
            <rect id="line" x="1" y="14" width="97" height="3" rx="1" fill="#161718"/>
            <path id="arrow-top"
                  d="M103.869 15.0372C104.283 15.2067 104.283 15.7933 103.869 15.9628L95.1515 19.5289C94.7345 19.6995 94.3223 19.2748 94.5053 18.8631L95.9097 15.7031C95.9672 15.5738 95.9672 15.4262 95.9097 15.2969L94.5053 12.1369C94.3223 11.7252 94.7345 11.3005 95.1515 11.4711L103.869 15.0372Z"
                  fill="#161718"/>
        </g>
    </g>
</svg>
