<svg width="86" height="30" viewBox="0 0 86 30" fill="none" xmlns="http://www.w3.org/2000/svg">
<g id="Frame 4">
<g id="head">
<path id="move" d="M85.2715 15.0695C85.599 15.2631 85.599 15.7369 85.2715 15.9305L76.1122 21.3428C75.7189 21.5752 75.2456 21.2019 75.3799 20.7653L76.9548 15.647C76.9842 15.5512 76.9842 15.4488 76.9548 15.353L75.3799 10.2347C75.2456 9.79807 75.7189 9.42478 76.1122 9.65718L85.2715 15.0695Z" fill="#161718"/>
<path id="not-move" d="M85.2715 15.0695C85.599 15.2631 85.599 15.7369 85.2715 15.9305L76.1122 21.3428C75.7189 21.5752 75.2456 21.2019 75.3799 20.7653L76.9548 15.647C76.9842 15.5512 76.9842 15.4488 76.9548 15.353L75.3799 10.2347C75.2456 9.79807 75.7189 9.42478 76.1122 9.65718L85.2715 15.0695Z" fill="#161718"/>
</g>
<g id="arrow">
<rect id="line" y="14" width="79" height="3" rx="1" fill="#161718"/>
<path id="arrow-top" d="M85.2627 15.0685C85.5926 15.2616 85.5926 15.7384 85.2627 15.9315L76.0067 21.3489C75.6127 21.5795 75.1412 21.205 75.2766 20.769L76.8674 15.6483C76.8974 15.5517 76.8974 15.4483 76.8674 15.3517L75.2766 10.231C75.1412 9.79504 75.6127 9.42052 76.0067 9.6511L85.2627 15.0685Z" fill="#161718"/>
</g>
</g>
</svg>
