<svg width="20" height="20" viewBox="0 0 20 20" fill="none" xmlns="http://www.w3.org/2000/svg">
<g id="icons8-instagram (1) 1">
<path id="Vector" d="M6.39998 18.4H13.6C16.2508 18.4 18.4 16.2508 18.4 13.6V6.40001C18.4 3.74921 16.2508 1.60001 13.6 1.60001H6.39998C3.74918 1.60001 1.59998 3.74921 1.59998 6.40001V13.6C1.59998 16.2508 3.74918 18.4 6.39998 18.4Z" stroke="white" stroke-width="2" stroke-miterlimit="10"/>
<path id="Vector_2" d="M10 6C8.93913 6 7.92172 6.42143 7.17157 7.17157C6.42143 7.92172 6 8.93913 6 10C6 11.0609 6.42143 12.0783 7.17157 12.8284C7.92172 13.5786 8.93913 14 10 14C11.0609 14 12.0783 13.5786 12.8284 12.8284C13.5786 12.0783 14 11.0609 14 10C14 8.93913 13.5786 7.92172 12.8284 7.17157C12.0783 6.42143 11.0609 6 10 6Z" stroke="white" stroke-width="2" stroke-miterlimit="10"/>
<path id="Vector_3" d="M14.8 4.39999C14.5878 4.39999 14.3843 4.48428 14.2343 4.63431C14.0843 4.78434 14 4.98782 14 5.19999C14 5.41217 14.0843 5.61565 14.2343 5.76568C14.3843 5.91571 14.5878 5.99999 14.8 5.99999C15.0122 5.99999 15.2157 5.91571 15.3657 5.76568C15.5157 5.61565 15.6 5.41217 15.6 5.19999C15.6 4.98782 15.5157 4.78434 15.3657 4.63431C15.2157 4.48428 15.0122 4.39999 14.8 4.39999Z" fill="white"/>
</g>
</svg>
