<svg width="18" height="141" viewBox="0 0 24 161" fill="none" xmlns="http://www.w3.org/2000/svg">
<g id="ScrollArrows">
<path id="top" d="M13.0607 0.984779C12.4749 0.398994 11.5251 0.398994 10.9393 0.984779L1.3934 10.5307C0.807611 11.1165 0.807611 12.0663 1.3934 12.652C1.97919 13.2378 2.92893 13.2378 3.51472 12.652L12 4.16676L20.4853 12.652C21.0711 13.2378 22.0208 13.2378 22.6066 12.652C23.1924 12.0663 23.1924 11.1165 22.6066 10.5307L13.0607 0.984779ZM13.5 72.0454L13.5 2.04544H10.5L10.5 72.0454H13.5Z" fill="#FCF7FF"/>
<path id="bottom" d="M10.9393 160.061C11.5251 160.646 12.4749 160.646 13.0607 160.061L22.6066 150.515C23.1924 149.929 23.1924 148.979 22.6066 148.393C22.0208 147.808 21.0711 147.808 20.4853 148.393L12 156.879L3.51472 148.393C2.92893 147.808 1.97919 147.808 1.3934 148.393C0.807611 148.979 0.807611 149.929 1.3934 150.515L10.9393 160.061ZM10.5 89L10.5 159H13.5L13.5 89H10.5Z" fill="#FCF7FF"/>
</g>
</svg>
