<svg width="20" height="20" viewBox="0 0 20 20" fill="none" xmlns="http://www.w3.org/2000/svg">
<g id="icons8-telegram-app 1">
<path id="Vector" d="M16.7695 2.65626C16.5528 2.66582 16.3509 2.72894 16.1732 2.80079C16.0067 2.86777 15.3705 3.14062 14.3685 3.57032C13.3656 4.0004 12.0377 4.57053 10.6211 5.1797C7.78798 6.39803 4.60281 7.76946 2.97135 8.47136C2.91001 8.49775 2.69595 8.56613 2.46875 8.7435C2.24155 8.92087 2 9.2884 2 9.69793C2 10.0282 2.15738 10.3562 2.35547 10.5521C2.55356 10.748 2.76316 10.8447 2.94271 10.918C3.59415 11.1838 5.61456 12.0106 5.99609 12.1667C6.13036 12.578 6.86166 14.815 7.03125 15.3633C7.14304 15.7251 7.24946 15.9517 7.38802 16.1315C7.4573 16.2214 7.53783 16.3002 7.63542 16.362C7.67442 16.3867 7.71719 16.4057 7.76042 16.4232L7.76302 16.4245C7.77298 16.4285 7.78157 16.4353 7.79167 16.4388C7.81072 16.4455 7.82347 16.4463 7.84896 16.4518C7.95051 16.4846 8.05303 16.5052 8.14453 16.5052C8.53464 16.5052 8.77344 16.2904 8.77344 16.2904L8.78776 16.28L10.7943 14.5443L13.2279 16.8464C13.2621 16.8948 13.5817 17.3333 14.2865 17.3333C14.7049 17.3333 15.0369 17.1234 15.25 16.8997C15.4631 16.6761 15.5959 16.4412 15.6523 16.1458V16.1445C15.7051 15.8654 17.9479 4.35157 17.9479 4.35157L17.944 4.3672C18.0097 4.06752 18.0269 3.78844 17.9544 3.51303C17.882 3.23762 17.6911 2.97394 17.4544 2.83204C17.2178 2.69018 16.9862 2.6467 16.7695 2.65626ZM16.6445 4.04949C16.6413 4.06895 16.6469 4.05916 16.6419 4.08204L16.6406 4.08985L16.6393 4.09767C16.6393 4.09767 14.4243 15.4643 14.3424 15.8971C14.3484 15.8645 14.321 15.9295 14.293 15.9688C14.2533 15.9414 14.1719 15.9063 14.1719 15.9063L14.1589 15.8919L10.8346 12.7474L8.48437 14.7787L9.18359 11.9792C9.18359 11.9792 13.5544 7.45475 13.8177 7.19142C14.0297 6.98075 14.0742 6.90731 14.0742 6.83465C14.0742 6.73731 14.0235 6.66668 13.9102 6.66668C13.8082 6.66668 13.671 6.76584 13.5977 6.81251C12.6423 7.42154 8.44788 9.8661 6.56771 10.9596C6.26892 10.8374 4.19311 9.98766 3.48958 9.70053C3.49491 9.6982 3.49316 9.69903 3.4987 9.69662C5.13058 8.99453 8.31442 7.62312 11.1471 6.40496C12.5635 5.79588 13.8924 5.22532 14.8945 4.79558C15.8812 4.37247 16.5667 4.08127 16.6445 4.04949Z" fill="white"/>
</g>
</svg>
